<svg id="Ebene_1" data-name="Ebene 1" xmlns="http://www.w3.org/2000/svg" viewBox="0 0 180 180"><defs><style>.cls-1{fill:#fff;}.cls-2{fill:#2876ae;}</style></defs><path class="cls-1" d="M20.25,83.65l-.31-.19.31.19a4.65,4.65,0,0,1,.92.85A4.65,4.65,0,0,0,20.25,83.65Z"/><path class="cls-1" d="M42.18,84.93a4.73,4.73,0,0,0-2.5,1.25,4.73,4.73,0,0,1,2.5-1.25Z"/><path class="cls-1" d="M44,85h0Z"/><path class="cls-1" d="M25.67,91.45q-1.46-2.13-2.79-4.32,1.34,2.19,2.79,4.32a6.29,6.29,0,0,0,.87,1.06A6.29,6.29,0,0,1,25.67,91.45Z"/><path class="cls-1" d="M28.66,93a2.45,2.45,0,0,1-.71.11A2.45,2.45,0,0,0,28.66,93Z"/><path class="cls-1" d="M43.14,84.92h0Z"/><path class="cls-1" d="M4.57,4.55V92a5.65,5.65,0,0,0,.95,1.6c2.25,2.39,4.37-3,5.14-4.44a13.71,13.71,0,0,1,3.67-5,5.57,5.57,0,0,1,5.21-.89h0a71.58,71.58,0,0,1,135-26L142.82,90.36,132.16,68.77A46.47,46.47,0,0,0,44.59,85h-.28a3.15,3.15,0,0,0,.61-.06c2.38-.45,3-3.46,4.9-5a1.87,1.87,0,0,1,1.09-.48c.8,0,1.34.76,1.73,1.43l2.76,4.81a2.84,2.84,0,0,0,1.51,1.52c1.42.39,2.6-1.37,4.07-1.36s2.4,1.79,3.87,2a3.12,3.12,0,0,0,2.8-1.72,17.73,17.73,0,0,1,1.74-3c1.59-1.72,3.29-.35,4.37,1.19.77,1.11,1.71,2.39,3.09,2.42,1.53,0,2.64-1.53,4.15-1.76s3,.93,4.49.81c2.27-.18,3.53-3,5.79-3.29,1.42-.2,2.84.68,4.24.41a4.23,4.23,0,0,0,2.27-1.47c1.44-1.6,2.34-3.61,3.77-5.23s3.73-2.85,5.79-2.11c1.57.56,2.53,2.07,3.26,3.52,1.42,2.78,2.46,5.73,4,8.47,1.22,2.23,5.69,8.8,9,7.5a4,4,0,0,0,1.75-1.82q1.23-2,2.44-4c.48-.78,1.13-1.66,2.07-1.63a2.28,2.28,0,0,1,1.31.61c1.71,1.46,2.53,3.85,4.55,4.89,1.38.71,3,.62,4.6.76,1.83.16,3.7.67,5.46.15,3.15-.94,4.79-4.86,8.05-5.32,1.21-.17,2.52.17,3.64-.31a5.16,5.16,0,0,0,1.89-1.74c2.44-3.18,4.57-7.51,9.41-4.64a11,11,0,0,1,4.08,5c.91,2,1.56,4.07,2.6,6l0-87.06Z"/><path class="cls-1" d="M42.5,84.91h0Z"/><path class="cls-1" d="M19.62,83.3l.28.14Z"/><path class="cls-1" d="M44,85c-.21,0-.42,0-.64,0C43.56,85,43.77,85,44,85Z"/><path class="cls-1" d="M42.76,84.9h0Z"/><path class="cls-1" d="M90.79,161.5a71.4,71.4,0,0,0,66.08-44L133.7,107.8A46.47,46.47,0,0,1,44.33,89.94a45.8,45.8,0,0,1,.27-5c-.8.07-1.62-.12-2.42,0-1.71.2-2.91,1.65-4.15,2.8-2.39,2.22-5.45,3.6-8.46,5a3.52,3.52,0,0,1-1.86.44,3.33,3.33,0,0,1-2-1.67q-1.74-2.55-3.32-5.2a7.73,7.73,0,0,0-2.1-2.6,3.64,3.64,0,0,0-.7-.38c-.2,2.2-.32,4.42-.32,6.67A71.64,71.64,0,0,0,90.79,161.5Z"/><path class="cls-2" d="M6.7,97.31a4.7,4.7,0,0,1-3.47-1.6,8.57,8.57,0,0,1-1.52-2.46,3.13,3.13,0,0,1,5.11-3.47c.3-.55.56-1.09.7-1.38s.25-.53.35-.72a16.36,16.36,0,0,1,4.6-6A8.41,8.41,0,0,1,22,81.05a10.26,10.26,0,0,1,3,3.53c1.06,1.78,2.14,3.47,3.25,5.09l.09.12c2.72-1.22,5.53-2.48,7.55-4.36l.55-.52c1.22-1.18,2.89-2.8,5.37-3.1a10.54,10.54,0,0,1,1.87,0,5.92,5.92,0,0,0,.66,0,8,8,0,0,0,1.07-1.42,12.41,12.41,0,0,1,2.41-2.91,4.88,4.88,0,0,1,3-1.2c1.81,0,3.35,1,4.51,3l2.49,4.34A6.49,6.49,0,0,1,61,82.72a6.25,6.25,0,0,1,3.93,1.66l.06.05c.16-.26.29-.53.43-.8A10.52,10.52,0,0,1,67.09,81a5.22,5.22,0,0,1,4.23-1.79c1.85.13,3.59,1.27,5,3.32a10.41,10.41,0,0,0,.69.92l.38-.24a8.09,8.09,0,0,1,3.12-1.33,7.85,7.85,0,0,1,3.79.52,5.54,5.54,0,0,0,.94.26,8.16,8.16,0,0,0,1.13-.89A7.3,7.3,0,0,1,94,79.7c.3.07.79.15.92.17s.17-.12.5-.48a18.57,18.57,0,0,0,1.61-2.26,24.65,24.65,0,0,1,2.14-3c2.56-2.89,6.17-4.07,9.19-3,2.64.95,4.06,3.2,5,5,.66,1.31,1.25,2.64,1.83,4,.68,1.55,1.32,3,2.08,4.42,1.39,2.54,3.84,5.37,5.09,5.94.1-.15.19-.31.25-.4l2.44-4c1.31-2.13,3-3.14,4.83-3.12a5.22,5.22,0,0,1,3.25,1.35,14.62,14.62,0,0,1,2.35,2.71,6.25,6.25,0,0,0,1.6,1.78,6.82,6.82,0,0,0,2.27.34l1.18.08c.5,0,1,.12,1.51.19a7.82,7.82,0,0,0,2.78.08,7.7,7.7,0,0,0,2.48-1.88c1.46-1.4,3.29-3.15,6-3.54a11,11,0,0,1,1.94-.07,6.39,6.39,0,0,0,.94,0c.07-.06.43-.52.6-.74l.85-1.17c2.08-2.88,5.94-8.24,12.65-4.27a13.77,13.77,0,0,1,5.33,6.41c.39.84.73,1.71,1.08,2.57a29.34,29.34,0,0,0,1.42,3.22,3.14,3.14,0,0,1-5.5,3,35,35,0,0,1-1.75-3.92c-.3-.75-.6-1.51-1-2.26a7.91,7.91,0,0,0-2.83-3.65c-1.42-.84-1.77-1.05-4.36,2.55-.32.45-.64.89-1,1.31a7.92,7.92,0,0,1-3.15,2.72,8.08,8.08,0,0,1-3.51.51,5.51,5.51,0,0,0-.91,0,6.38,6.38,0,0,0-2.57,1.86,10.22,10.22,0,0,1-10.45,3.48L140,95.58c-.32,0-.64,0-1-.06a11.57,11.57,0,0,1-4.78-1,11.06,11.06,0,0,1-3.81-3.68L130,90.2l-2,3.25a6.88,6.88,0,0,1-3.28,3.1c-6.48,2.52-12.27-7.74-12.91-8.92-.9-1.63-1.62-3.3-2.33-4.91-.53-1.23-1.07-2.45-1.67-3.64s-1.11-1.84-1.52-2-1.55.29-2.38,1.24a19.24,19.24,0,0,0-1.58,2.2,22.83,22.83,0,0,1-2.22,3,7.14,7.14,0,0,1-4,2.46,8.2,8.2,0,0,1-3.46-.23,4.9,4.9,0,0,0-1-.16,6.27,6.27,0,0,0-1.19.91A8.2,8.2,0,0,1,85.73,89a8.34,8.34,0,0,1-3.39-.57,5.47,5.47,0,0,0-.93-.26s-.39.26-.64.42a6.65,6.65,0,0,1-4,1.37c-3-.06-4.69-2.47-5.59-3.77h0c-.05.09-.09.19-.14.28-.23.45-.46.9-.72,1.33A6.15,6.15,0,0,1,64.43,91a6.85,6.85,0,0,1-3.37-1.64l-.19-.15-.18.11a5.67,5.67,0,0,1-4.61,1,5.78,5.78,0,0,1-3.4-3l-2-3.45-.06.08c-1,1.52-2.38,3.6-5.14,4.13a9,9,0,0,1-2.28.06,3.72,3.72,0,0,0-.67,0c-.38,0-1.16.81-1.74,1.37l-.65.62c-2.79,2.6-6.25,4.14-9.31,5.51a6.27,6.27,0,0,1-3.6.68,6.3,6.3,0,0,1-4.17-3c-1.19-1.73-2.34-3.54-3.43-5.36a5.67,5.67,0,0,0-1.17-1.62,2.36,2.36,0,0,0-2.28.44,11,11,0,0,0-2.75,3.87l-.28.56c-1.08,2.26-2.71,5.67-5.79,6.14A4.29,4.29,0,0,1,6.7,97.31ZM27.79,90Z"/></svg>